<?xml version="1.0" encoding="UTF-8" standalone="no"?>
<!-- Created with Inkscape (http://www.inkscape.org/) -->

<svg
   version="1.1"
   id="svg132"
   width="146.25867"
   height="146.25867"
   viewBox="0 0 146.25867 146.25867"
   sodipodi:docname="ghe-logo.svg"
   inkscape:version="1.3.2 (091e20e, 2023-11-25)"
   xmlns:inkscape="http://www.inkscape.org/namespaces/inkscape"
   xmlns:sodipodi="http://sodipodi.sourceforge.net/DTD/sodipodi-0.dtd"
   xmlns="http://www.w3.org/2000/svg"
   xmlns:svg="http://www.w3.org/2000/svg">
  <defs
     id="defs136">
    <clipPath
       clipPathUnits="userSpaceOnUse"
       id="clipPath156">
      <path
         d="M 0,109.694 H 109.694 V 0 H 0 Z"
         id="path154" />
    </clipPath>
    <clipPath
       clipPathUnits="userSpaceOnUse"
       id="clipPath160">
      <path
         d="M 109.694,54.847 C 109.694,24.556 85.138,0 54.847,0 24.556,0 0,24.556 0,54.847 c 0,30.291 24.556,54.847 54.847,54.847 30.291,0 54.847,-24.556 54.847,-54.847"
         id="path158" />
    </clipPath>
    <clipPath
       clipPathUnits="userSpaceOnUse"
       id="clipPath164">
      <path
         d="M -32768,32767 H 32767 V -32768 H -32768 Z"
         id="path162" />
    </clipPath>
    <radialGradient
       fx="0"
       fy="0"
       cx="0"
       cy="0"
       r="1"
       gradientUnits="userSpaceOnUse"
       gradientTransform="matrix(54.847031,0,0,-54.847031,54.847031,54.847031)"
       spreadMethod="pad"
       id="radialGradient170">
      <stop
         style="stop-opacity:1;stop-color:#ffffff"
         offset="0"
         id="stop166" />
      <stop
         style="stop-opacity:0;stop-color:#ffffff"
         offset="1"
         id="stop168" />
    </radialGradient>
    <mask
       maskUnits="userSpaceOnUse"
       x="0"
       y="0"
       width="1"
       height="1"
       id="mask172">
      <g
         id="g182">
        <g
           clip-path="url(#clipPath164)"
           id="g180">
          <g
             id="g178">
            <g
               id="g176">
              <path
                 d="M -32768,32767 H 32767 V -32768 H -32768 Z"
                 style="fill:url(#radialGradient170);stroke:none"
                 id="path174" />
            </g>
          </g>
        </g>
      </g>
    </mask>
    <radialGradient
       fx="0"
       fy="0"
       cx="0"
       cy="0"
       r="1"
       gradientUnits="userSpaceOnUse"
       gradientTransform="matrix(54.847031,0,0,-54.847031,54.847031,54.847034)"
       spreadMethod="pad"
       id="radialGradient188">
      <stop
         style="stop-opacity:1;stop-color:#ffca00"
         offset="0"
         id="stop184" />
      <stop
         style="stop-color:#fffffe;stop-opacity:0;"
         offset="1"
         id="stop186" />
    </radialGradient>
    <clipPath
       clipPathUnits="userSpaceOnUse"
       id="clipPath895">
      <g
         id="g901"
         style="stroke-width:1">
        <g
           id="g899"
           style="stroke-width:1">
          <path
             d="M 0,109.694 H 109.694 V 0 H 0 Z"
             id="path897"
             style="stroke-width:1" />
        </g>
      </g>
    </clipPath>
    <clipPath
       clipPathUnits="userSpaceOnUse"
       id="clipPath925">
      <g
         id="g931"
         style="stroke-width:1">
        <g
           id="g929"
           style="stroke-width:1">
          <path
             d="M 0,109.694 H 109.694 V 0 H 0 Z"
             id="path927"
             style="stroke-width:1" />
        </g>
      </g>
    </clipPath>
    <clipPath
       clipPathUnits="userSpaceOnUse"
       id="clipPath955">
      <g
         id="g961"
         style="stroke-width:1">
        <g
           id="g959"
           style="stroke-width:1">
          <path
             d="M 0,109.694 H 109.694 V 0 H 0 Z"
             id="path957"
             style="stroke-width:1" />
        </g>
      </g>
    </clipPath>
    <clipPath
       clipPathUnits="userSpaceOnUse"
       id="clipPath985">
      <g
         id="g991"
         style="stroke-width:1">
        <g
           id="g989"
           style="stroke-width:1">
          <path
             d="M 0,109.694 H 109.694 V 0 H 0 Z"
             id="path987"
             style="stroke-width:1" />
        </g>
      </g>
    </clipPath>
    <clipPath
       clipPathUnits="userSpaceOnUse"
       id="clipPath1015">
      <g
         id="g1021"
         style="stroke-width:1">
        <g
           id="g1019"
           style="stroke-width:1">
          <path
             d="M 0,109.694 H 109.694 V 0 H 0 Z"
             id="path1017"
             style="stroke-width:1" />
        </g>
      </g>
    </clipPath>
    <clipPath
       clipPathUnits="userSpaceOnUse"
       id="clipPath1045">
      <g
         id="g1051"
         style="stroke-width:1">
        <g
           id="g1049"
           style="stroke-width:1">
          <path
             d="M 0,109.694 H 109.694 V 0 H 0 Z"
             id="path1047"
             style="stroke-width:1" />
        </g>
      </g>
    </clipPath>
    <clipPath
       clipPathUnits="userSpaceOnUse"
       id="clipPath1075">
      <g
         id="g1081"
         style="stroke-width:1">
        <g
           id="g1079"
           style="stroke-width:1">
          <path
             d="M 0,109.694 H 109.694 V 0 H 0 Z"
             id="path1077"
             style="stroke-width:1" />
        </g>
      </g>
    </clipPath>
    <clipPath
       clipPathUnits="userSpaceOnUse"
       id="clipPath1090">
      <g
         id="g1096"
         style="stroke-width:1">
        <g
           id="g1094"
           style="stroke-width:1">
          <path
             d="M 0,109.694 H 109.694 V 0 H 0 Z"
             id="path1092"
             style="stroke-width:1" />
        </g>
      </g>
    </clipPath>
    <clipPath
       clipPathUnits="userSpaceOnUse"
       id="clipPath1105">
      <g
         id="g1111"
         style="stroke-width:1">
        <g
           id="g1109"
           style="stroke-width:1">
          <path
             d="M 0,109.694 H 109.694 V 0 H 0 Z"
             id="path1107"
             style="stroke-width:1" />
        </g>
      </g>
    </clipPath>
  </defs>
  <sodipodi:namedview
     id="namedview134"
     pagecolor="#505050"
     bordercolor="#eeeeee"
     borderopacity="1"
     inkscape:showpageshadow="0"
     inkscape:pageopacity="0"
     inkscape:pagecheckerboard="0"
     inkscape:deskcolor="#505050"
     showgrid="false"
     inkscape:zoom="2.8086898"
     inkscape:cx="47.709077"
     inkscape:cy="70.139465"
     inkscape:window-width="1384"
     inkscape:window-height="847"
     inkscape:window-x="56"
     inkscape:window-y="25"
     inkscape:window-maximized="0"
     inkscape:current-layer="g140">
    <inkscape:page
       x="0"
       y="0"
       id="page138"
       width="146.25867"
       height="146.25867"
       inkscape:export-filename="ghe-logo.png"
       inkscape:export-xdpi="96"
       inkscape:export-ydpi="96"
       margin="0"
       bleed="0" />
  </sodipodi:namedview>
  <g
     id="g140"
     inkscape:groupmode="layer"
     inkscape:label="Page 1"
     transform="matrix(1.3333333,0,0,-1.3333333,0,146.25867)">
    <path
       d="M 109.694,54.847003 C 109.694,24.556003 85.138001,2.7491048e-6 54.847001,2.7491048e-6 24.556001,2.7491048e-6 1.4932453e-6,24.556003 1.4932453e-6,54.847003 1.4932453e-6,85.138003 24.556001,109.694 54.847001,109.694 c 30.291,0 54.846999,-24.555997 54.846999,-54.846997"
       style="fill:url(#radialGradient188);stroke:none"
       id="path192"
       inkscape:label="electron cloud"
       sodipodi:insensitive="true" />
    <path
       d="m 53.819753,47.229302 c 0,-1.842948 -1.494091,-3.336602 -3.337579,-3.336602 -1.843488,0 -3.337579,1.493654 -3.337579,3.336602 0,1.842948 1.494091,3.336601 3.337579,3.336601 1.843488,0 3.337579,-1.493653 3.337579,-3.336601"
       style="fill:#fc9272;fill-opacity:1;fill-rule:nonzero;stroke:#000000;stroke-width:0.999752;stroke-dasharray:none;stroke-opacity:1"
       id="path210-2"
       clip-path="none" />
    <path
       d="m 52.624143,54.674314 c 0,-1.842948 -1.494091,-3.336602 -3.337579,-3.336602 -1.843488,0 -3.337579,1.493654 -3.337579,3.336602 0,1.842948 1.494091,3.336602 3.337579,3.336602 1.843488,0 3.337579,-1.493654 3.337579,-3.336602"
       style="fill:#bcbddc;fill-opacity:1;fill-rule:nonzero;stroke:#000000;stroke-width:0.999752;stroke-dasharray:none;stroke-opacity:1"
       id="path234"
       clip-path="none"
       inkscape:label="n" />
    <path
       d="m 63.051343,57.374431 c 0,-1.842949 -1.49409,-3.336602 -3.337578,-3.336602 -1.843488,0 -3.337579,1.493653 -3.337579,3.336602 0,1.842948 1.494091,3.336601 3.337579,3.336601 1.843488,0 3.337578,-1.493653 3.337578,-3.336601"
       style="fill:#bcbddc;fill-opacity:1;fill-rule:nonzero;stroke:#000000;stroke-width:0.999752;stroke-dasharray:none;stroke-opacity:1"
       id="path234-3-4"
       clip-path="none"
       inkscape:label="n" />
    <path
       d="m 63.051344,50.718002 c 0,-1.842948 -1.494091,-3.336602 -3.337579,-3.336602 -1.843488,0 -3.337579,1.493654 -3.337579,3.336602 0,1.842948 1.494091,3.336601 3.337579,3.336601 1.843488,0 3.337579,-1.493653 3.337579,-3.336601"
       style="fill:#bcbddc;fill-opacity:1;fill-rule:nonzero;stroke:#000000;stroke-width:0.999752;stroke-dasharray:none;stroke-opacity:1"
       id="path234-3-7"
       clip-path="none"
       inkscape:label="n" />
    <path
       d="m 49.32243,49.103798 c 0,-1.842948 -1.494092,-3.336602 -3.337579,-3.336602 -1.843488,0 -3.33758,1.493654 -3.33758,3.336602 0,1.842948 1.494092,3.336602 3.33758,3.336602 1.843487,0 3.337579,-1.493654 3.337579,-3.336602"
       style="fill:#bcbddc;fill-opacity:1;fill-rule:nonzero;stroke:#000000;stroke-width:0.999752;stroke-dasharray:none;stroke-opacity:1"
       id="path234-3-5"
       clip-path="none"
       inkscape:label="n" />
    <path
       d="m 56.342314,47.858002 c 0,-1.842948 -1.494091,-3.336603 -3.337579,-3.336603 -1.843488,0 -3.337579,1.493655 -3.337579,3.336603 0,1.842948 1.494091,3.336601 3.337579,3.336601 1.843488,0 3.337579,-1.493653 3.337579,-3.336601"
       style="fill:#bcbddc;fill-opacity:1;fill-rule:nonzero;stroke:#000000;stroke-width:0.999752;stroke-dasharray:none;stroke-opacity:1"
       id="path234-3-75"
       clip-path="none"
       inkscape:label="n" />
    <path
       d="m 48.171843,54.847006 c 0,-1.842949 -1.494091,-3.336602 -3.337579,-3.336602 -1.843488,0 -3.337579,1.493653 -3.337579,3.336602 0,1.842948 1.494091,3.336601 3.337579,3.336601 1.843488,0 3.337579,-1.493653 3.337579,-3.336601"
       style="fill:#bcbddc;fill-opacity:1;fill-rule:nonzero;stroke:#000000;stroke-width:0.999752;stroke-dasharray:none;stroke-opacity:1"
       id="path234-3-06"
       clip-path="none"
       inkscape:label="n" />
    <path
       d="m 57.089818,62.748025 c 0,-1.842949 -1.494091,-3.336602 -3.337579,-3.336602 -1.843488,0 -3.337579,1.493653 -3.337579,3.336602 0,1.842949 1.494091,3.336602 3.337579,3.336602 1.843488,0 3.337579,-1.493653 3.337579,-3.336602"
       style="fill:#bcbddc;fill-opacity:1;fill-rule:nonzero;stroke:#000000;stroke-width:0.999752;stroke-dasharray:none;stroke-opacity:1"
       id="path234-3-0"
       clip-path="none"
       inkscape:label="n" />
    <path
       d="m 61.001262,61.490624 c 0,-1.842948 -1.49409,-3.336602 -3.337578,-3.336602 -1.843488,0 -3.337579,1.493654 -3.337579,3.336602 0,1.842948 1.494091,3.336601 3.337579,3.336601 1.843488,0 3.337578,-1.493653 3.337578,-3.336601"
       style="fill:#fc9272;fill-opacity:1;fill-rule:nonzero;stroke:#000000;stroke-width:0.999752;stroke-dasharray:none;stroke-opacity:1"
       id="path210"
       clip-path="none" />
    <path
       d="m 48.731613,59.460896 c 0,-1.842948 -1.494091,-3.336601 -3.337579,-3.336601 -1.843488,0 -3.337579,1.493653 -3.337579,3.336601 0,1.842948 1.494091,3.336602 3.337579,3.336602 1.843488,0 3.337579,-1.493654 3.337579,-3.336602"
       style="fill:#fc9272;fill-opacity:1;fill-rule:nonzero;stroke:#000000;stroke-width:0.999752;stroke-dasharray:none;stroke-opacity:1"
       id="path210-2-5"
       clip-path="none" />
    <path
       d="m 51.509422,51.510404 c 0,-1.842949 -1.494091,-3.336602 -3.337579,-3.336602 -1.843488,0 -3.337579,1.493653 -3.337579,3.336602 0,1.842948 1.494091,3.336601 3.337579,3.336601 1.843488,0 3.337579,-1.493653 3.337579,-3.336601"
       style="fill:#fc9272;fill-opacity:1;fill-rule:nonzero;stroke:#000000;stroke-width:0.999752;stroke-dasharray:none;stroke-opacity:1"
       id="path210-2-8"
       clip-path="none" />
    <path
       d="m 59.870564,47.858002 c 0,-1.842948 -1.494091,-3.336602 -3.337579,-3.336602 -1.843488,0 -3.337578,1.493654 -3.337578,3.336602 0,1.842948 1.49409,3.336601 3.337578,3.336601 1.843488,0 3.337579,-1.493653 3.337579,-3.336601"
       style="fill:#fc9272;fill-opacity:1;fill-rule:nonzero;stroke:#000000;stroke-width:0.999752;stroke-dasharray:none;stroke-opacity:1"
       id="path210-2-3-5"
       clip-path="none" />
    <path
       d="m 52.624143,57.772791 c 0,-1.842948 -1.494091,-3.336602 -3.337579,-3.336602 -1.843488,0 -3.337579,1.493654 -3.337579,3.336602 0,1.842949 1.494091,3.336602 3.337579,3.336602 1.843488,0 3.337579,-1.493653 3.337579,-3.336602"
       style="fill:#bcbddc;fill-opacity:1;fill-rule:nonzero;stroke:#000000;stroke-width:0.999752;stroke-dasharray:none;stroke-opacity:1"
       id="path234-3-8"
       clip-path="none"
       inkscape:label="n" />
    <path
       d="m 58.073566,53.273804 c 0,-1.842948 -1.494091,-3.336602 -3.337579,-3.336602 -1.843488,0 -3.337579,1.493654 -3.337579,3.336602 0,1.842948 1.494091,3.336601 3.337579,3.336601 1.843488,0 3.337579,-1.493653 3.337579,-3.336601"
       style="fill:#bcbddc;fill-opacity:1;fill-rule:nonzero;stroke:#000000;stroke-width:0.999752;stroke-dasharray:none;stroke-opacity:1"
       id="path234-3-47"
       clip-path="none"
       inkscape:label="n" />
    <path
       d="m 53.161533,62.066877 c 0,-1.842948 -1.494091,-3.336602 -3.337579,-3.336602 -1.843488,0 -3.337578,1.493654 -3.337578,3.336602 0,1.842948 1.49409,3.336602 3.337578,3.336602 1.843488,0 3.337579,-1.493654 3.337579,-3.336602"
       style="fill:#fc9272;fill-opacity:1;fill-rule:nonzero;stroke:#000000;stroke-width:0.999752;stroke-dasharray:none;stroke-opacity:1"
       id="path210-2-9"
       clip-path="none" />
    <path
       d="m 57.473012,57.374431 c 0,-1.842949 -1.494091,-3.336602 -3.337578,-3.336602 -1.843488,0 -3.337579,1.493653 -3.337579,3.336602 0,1.842948 1.494091,3.336601 3.337579,3.336601 1.843487,0 3.337578,-1.493653 3.337578,-3.336601"
       style="fill:#bcbddc;fill-opacity:1;fill-rule:nonzero;stroke:#000000;stroke-width:0.999752;stroke-dasharray:none;stroke-opacity:1"
       id="path234-3"
       clip-path="none"
       inkscape:label="n" />
    <path
       d="m 54.847,54.847005 c 0,-1.842948 -1.49409,-3.336601 -3.337578,-3.336601 -1.843488,0 -3.337579,1.493653 -3.337579,3.336601 0,1.842948 1.494091,3.336602 3.337579,3.336602 1.843488,0 3.337578,-1.493654 3.337578,-3.336602"
       style="fill:#fc9272;fill-opacity:1;fill-rule:nonzero;stroke:#000000;stroke-width:0.999752;stroke-dasharray:none;stroke-opacity:1"
       id="path210-2-55"
       clip-path="none" />
    <path
       d="m 63.953015,54.674314 c 0,-1.842948 -1.494091,-3.336602 -3.337579,-3.336602 -1.843488,0 -3.337578,1.493654 -3.337578,3.336602 0,1.842948 1.49409,3.336602 3.337578,3.336602 1.843488,0 3.337579,-1.493654 3.337579,-3.336602"
       style="fill:#fc9272;fill-opacity:1;fill-rule:nonzero;stroke:#000000;stroke-width:0.999752;stroke-dasharray:none;stroke-opacity:1"
       id="path210-2-3"
       clip-path="none" />
    <path
       d="m 72.66437,24.181392 c 0,-1.01152 -0.819835,-1.832071 -1.831611,-1.832071 -1.011266,0 -1.831612,0.820551 -1.831612,1.832071 0,1.011519 0.820346,1.83156 1.831612,1.83156 1.011776,0 1.831611,-0.820041 1.831611,-1.83156"
       style="fill:#ffca00;fill-opacity:1;fill-rule:nonzero;stroke:#000000;stroke-width:0.999746;stroke-dasharray:none;stroke-opacity:1"
       id="path250-8"
       clip-path="none"
       inkscape:label="path250" />
    <path
       d="m 83.936662,69.977596 c 0,-1.011519 -0.81984,-1.832071 -1.83161,-1.832071 -1.01127,0 -1.831613,0.820552 -1.831613,1.832071 0,1.011519 0.820343,1.831561 1.831613,1.831561 1.01177,0 1.83161,-0.820042 1.83161,-1.831561"
       style="fill:#ffca00;fill-opacity:1;fill-rule:nonzero;stroke:#000000;stroke-width:0.999746;stroke-dasharray:none;stroke-opacity:1"
       id="path250-84"
       clip-path="none"
       inkscape:label="path250" />
    <path
       d="m 41.194273,28.844769 c 0,-1.011521 -0.819835,-1.832071 -1.831612,-1.832071 -1.011267,0 -1.831612,0.820551 -1.831612,1.832071 0,1.011519 0.820345,1.831561 1.831612,1.831561 1.011776,0 1.831612,-0.820042 1.831612,-1.831561"
       style="fill:#ffca00;fill-opacity:1;fill-rule:nonzero;stroke:#000000;stroke-width:0.999746;stroke-dasharray:none;stroke-opacity:1"
       id="path250-2"
       clip-path="none"
       inkscape:label="path250" />
    <path
       d="m 80.732326,42.935885 c 0,-1.011518 -0.81984,-1.83207 -1.831616,-1.83207 -1.011267,0 -1.831612,0.820552 -1.831612,1.83207 0,1.01152 0.820345,1.831562 1.831612,1.831562 1.011776,0 1.831616,-0.820042 1.831616,-1.831562"
       style="fill:#ffca00;fill-opacity:1;fill-rule:nonzero;stroke:#000000;stroke-width:0.999746;stroke-dasharray:none;stroke-opacity:1"
       id="path250-9"
       clip-path="none"
       inkscape:label="path250" />
    <path
       d="m 65.382831,82.836058 c 0,-1.011519 -0.819836,-1.832071 -1.831612,-1.832071 -1.011266,0 -1.831612,0.820553 -1.831612,1.832071 0,1.011521 0.820346,1.83156 1.831612,1.83156 1.011776,0 1.831612,-0.82004 1.831612,-1.83156"
       style="fill:#ffca00;fill-opacity:1;fill-rule:nonzero;stroke:#000000;stroke-width:0.999746;stroke-dasharray:none;stroke-opacity:1"
       id="path250-4"
       clip-path="none"
       inkscape:label="path250" />
    <path
       d="m 45.159905,87.472653 c 0,-1.01152 -0.819835,-1.832072 -1.831612,-1.832072 -1.011266,0 -1.831611,0.820553 -1.831611,1.832072 0,1.01152 0.820345,1.831559 1.831611,1.831559 1.011777,0 1.831612,-0.82004 1.831612,-1.831559"
       style="fill:#ffca00;fill-opacity:1;fill-rule:nonzero;stroke:#000000;stroke-width:0.999746;stroke-dasharray:none;stroke-opacity:1"
       id="path250-0"
       clip-path="none"
       inkscape:label="path250" />
    <path
       d="m 27.914622,72.309286 c 0,-1.01152 -0.819835,-1.832071 -1.831612,-1.832071 -1.011266,0 -1.831611,0.820551 -1.831611,1.832071 0,1.01152 0.820345,1.83156 1.831611,1.83156 1.011777,0 1.831612,-0.820041 1.831612,-1.83156"
       style="fill:#ffca00;fill-opacity:1;fill-rule:nonzero;stroke:#000000;stroke-width:0.999746;stroke-dasharray:none;stroke-opacity:1"
       id="path250-06"
       clip-path="none"
       inkscape:label="path250" />
    <path
       d="m 22.307025,46.772365 c 0,-1.011519 -0.819835,-1.83207 -1.831611,-1.83207 -1.011267,0 -1.831613,0.820551 -1.831613,1.83207 0,1.01152 0.820346,1.83156 1.831613,1.83156 1.011776,0 1.831611,-0.82004 1.831611,-1.83156"
       style="fill:#ffca00;fill-opacity:1;fill-rule:nonzero;stroke:#000000;stroke-width:0.999746;stroke-dasharray:none;stroke-opacity:1"
       id="path250-04"
       clip-path="none"
       inkscape:label="path250" />
  </g>
</svg>
