<?xml version="1.0" encoding="UTF-8" standalone="no"?>
<!-- Created with Inkscape (http://www.inkscape.org/) -->

<svg
   version="1.1"
   id="svg132"
   width="146.25867"
   height="146.25867"
   viewBox="0 0 146.25867 146.25867"
   sodipodi:docname="ghe-logo.svg"
   inkscape:version="1.3.2 (091e20e, 2023-11-25)"
   xmlns:inkscape="http://www.inkscape.org/namespaces/inkscape"
   xmlns:sodipodi="http://sodipodi.sourceforge.net/DTD/sodipodi-0.dtd"
   xmlns="http://www.w3.org/2000/svg"
   xmlns:svg="http://www.w3.org/2000/svg">
  <defs
     id="defs136">
    <clipPath
       clipPathUnits="userSpaceOnUse"
       id="clipPath156">
      <path
         d="M 0,109.694 H 109.694 V 0 H 0 Z"
         id="path154" />
    </clipPath>
    <clipPath
       clipPathUnits="userSpaceOnUse"
       id="clipPath160">
      <path
         d="M 109.694,54.847 C 109.694,24.556 85.138,0 54.847,0 24.556,0 0,24.556 0,54.847 c 0,30.291 24.556,54.847 54.847,54.847 30.291,0 54.847,-24.556 54.847,-54.847"
         id="path158" />
    </clipPath>
    <clipPath
       clipPathUnits="userSpaceOnUse"
       id="clipPath164">
      <path
         d="M -32768,32767 H 32767 V -32768 H -32768 Z"
         id="path162" />
    </clipPath>
    <radialGradient
       fx="0"
       fy="0"
       cx="0"
       cy="0"
       r="1"
       gradientUnits="userSpaceOnUse"
       gradientTransform="matrix(54.847031,0,0,-54.847031,54.847031,54.847031)"
       spreadMethod="pad"
       id="radialGradient170">
      <stop
         style="stop-opacity:1;stop-color:#ffffff"
         offset="0"
         id="stop166" />
      <stop
         style="stop-opacity:0;stop-color:#ffffff"
         offset="1"
         id="stop168" />
    </radialGradient>
    <mask
       maskUnits="userSpaceOnUse"
       x="0"
       y="0"
       width="1"
       height="1"
       id="mask172">
      <g
         id="g182">
        <g
           clip-path="url(#clipPath164)"
           id="g180">
          <g
             id="g178">
            <g
               id="g176">
              <path
                 d="M -32768,32767 H 32767 V -32768 H -32768 Z"
                 style="fill:url(#radialGradient170);stroke:none"
                 id="path174" />
            </g>
          </g>
        </g>
      </g>
    </mask>
    <radialGradient
       fx="0"
       fy="0"
       cx="0"
       cy="0"
       r="1"
       gradientUnits="userSpaceOnUse"
       gradientTransform="matrix(54.847031,0,0,-54.847031,54.847031,54.847034)"
       spreadMethod="pad"
       id="radialGradient188">
      <stop
         style="stop-opacity:1;stop-color:#ffca00"
         offset="0"
         id="stop184" />
      <stop
         style="stop-color:#ffffff;stop-opacity:0;"
         offset="1"
         id="stop186" />
    </radialGradient>
    <clipPath
       clipPathUnits="userSpaceOnUse"
       id="clipPath895">
      <g
         id="g901"
         style="stroke-width:1">
        <g
           id="g899"
           style="stroke-width:1">
          <path
             d="M 0,109.694 H 109.694 V 0 H 0 Z"
             id="path897"
             style="stroke-width:1" />
        </g>
      </g>
    </clipPath>
    <clipPath
       clipPathUnits="userSpaceOnUse"
       id="clipPath925">
      <g
         id="g931"
         style="stroke-width:1">
        <g
           id="g929"
           style="stroke-width:1">
          <path
             d="M 0,109.694 H 109.694 V 0 H 0 Z"
             id="path927"
             style="stroke-width:1" />
        </g>
      </g>
    </clipPath>
    <clipPath
       clipPathUnits="userSpaceOnUse"
       id="clipPath955">
      <g
         id="g961"
         style="stroke-width:1">
        <g
           id="g959"
           style="stroke-width:1">
          <path
             d="M 0,109.694 H 109.694 V 0 H 0 Z"
             id="path957"
             style="stroke-width:1" />
        </g>
      </g>
    </clipPath>
    <clipPath
       clipPathUnits="userSpaceOnUse"
       id="clipPath985">
      <g
         id="g991"
         style="stroke-width:1">
        <g
           id="g989"
           style="stroke-width:1">
          <path
             d="M 0,109.694 H 109.694 V 0 H 0 Z"
             id="path987"
             style="stroke-width:1" />
        </g>
      </g>
    </clipPath>
    <clipPath
       clipPathUnits="userSpaceOnUse"
       id="clipPath1015">
      <g
         id="g1021"
         style="stroke-width:1">
        <g
           id="g1019"
           style="stroke-width:1">
          <path
             d="M 0,109.694 H 109.694 V 0 H 0 Z"
             id="path1017"
             style="stroke-width:1" />
        </g>
      </g>
    </clipPath>
    <clipPath
       clipPathUnits="userSpaceOnUse"
       id="clipPath1045">
      <g
         id="g1051"
         style="stroke-width:1">
        <g
           id="g1049"
           style="stroke-width:1">
          <path
             d="M 0,109.694 H 109.694 V 0 H 0 Z"
             id="path1047"
             style="stroke-width:1" />
        </g>
      </g>
    </clipPath>
    <clipPath
       clipPathUnits="userSpaceOnUse"
       id="clipPath1075">
      <g
         id="g1081"
         style="stroke-width:1">
        <g
           id="g1079"
           style="stroke-width:1">
          <path
             d="M 0,109.694 H 109.694 V 0 H 0 Z"
             id="path1077"
             style="stroke-width:1" />
        </g>
      </g>
    </clipPath>
    <clipPath
       clipPathUnits="userSpaceOnUse"
       id="clipPath1090">
      <g
         id="g1096"
         style="stroke-width:1">
        <g
           id="g1094"
           style="stroke-width:1">
          <path
             d="M 0,109.694 H 109.694 V 0 H 0 Z"
             id="path1092"
             style="stroke-width:1" />
        </g>
      </g>
    </clipPath>
    <clipPath
       clipPathUnits="userSpaceOnUse"
       id="clipPath1105">
      <g
         id="g1111"
         style="stroke-width:1">
        <g
           id="g1109"
           style="stroke-width:1">
          <path
             d="M 0,109.694 H 109.694 V 0 H 0 Z"
             id="path1107"
             style="stroke-width:1" />
        </g>
      </g>
    </clipPath>
  </defs>
  <sodipodi:namedview
     id="namedview134"
     pagecolor="#505050"
     bordercolor="#eeeeee"
     borderopacity="1"
     inkscape:showpageshadow="0"
     inkscape:pageopacity="0"
     inkscape:pagecheckerboard="0"
     inkscape:deskcolor="#505050"
     showgrid="false"
     inkscape:zoom="3.9217804"
     inkscape:cx="79.555704"
     inkscape:cy="68.081324"
     inkscape:window-width="1384"
     inkscape:window-height="847"
     inkscape:window-x="56"
     inkscape:window-y="25"
     inkscape:window-maximized="0"
     inkscape:current-layer="g140">
    <inkscape:page
       x="0"
       y="0"
       id="page138"
       width="146.25867"
       height="146.25867"
       inkscape:export-filename="oxygen-18.png"
       inkscape:export-xdpi="360"
       inkscape:export-ydpi="360"
       margin="0"
       bleed="0" />
  </sodipodi:namedview>
  <g
     id="g140"
     inkscape:groupmode="layer"
     inkscape:label="Page 1"
     transform="matrix(1.3333333,0,0,-1.3333333,0,146.25867)">
    <path
       d="M 109.694,54.847003 C 109.694,24.556003 85.138001,2.7491048e-6 54.847001,2.7491048e-6 24.556001,2.7491048e-6 1.4932453e-6,24.556003 1.4932453e-6,54.847003 1.4932453e-6,85.138003 24.556001,109.694 54.847001,109.694 c 30.291,0 54.846999,-24.555997 54.846999,-54.846997"
       style="fill:url(#radialGradient188);stroke:none"
       id="path192"
       inkscape:label="electron cloud"
       sodipodi:insensitive="true" />
    <path
       d="m 56.740225,43.062415 c 0,-2.917173 -2.365864,-5.281453 -5.284992,-5.281453 -2.919128,0 -5.284992,2.36428 -5.284992,5.281453 0,2.917173 2.365864,5.281453 5.284992,5.281453 2.919128,0 5.284992,-2.36428 5.284992,-5.281453"
       style="fill:#fc9272;fill-opacity:1;fill-rule:nonzero;stroke:#000000;stroke-width:0.999749;stroke-dasharray:none;stroke-opacity:1"
       id="path210-2"
       clip-path="none" />
    <path
       d="m 54.847,54.847005 c 0,-2.917173 -2.365865,-5.281454 -5.284992,-5.281454 -2.919128,0 -5.284993,2.364281 -5.284993,5.281454 0,2.917173 2.365865,5.281453 5.284993,5.281453 2.919127,0 5.284992,-2.36428 5.284992,-5.281453"
       style="fill:#bcbddc;fill-opacity:1;fill-rule:nonzero;stroke:#000000;stroke-width:0.999749;stroke-dasharray:none;stroke-opacity:1"
       id="path234"
       clip-path="none"
       inkscape:label="n" />
    <path
       d="m 71.358272,59.120976 c 0,-2.917173 -2.365864,-5.281453 -5.284992,-5.281453 -2.919128,0 -5.284992,2.36428 -5.284992,5.281453 0,2.917173 2.365864,5.281453 5.284992,5.281453 2.919128,0 5.284992,-2.36428 5.284992,-5.281453"
       style="fill:#bcbddc;fill-opacity:1;fill-rule:nonzero;stroke:#000000;stroke-width:0.999749;stroke-dasharray:none;stroke-opacity:1"
       id="path234-3-4"
       clip-path="none"
       inkscape:label="n" />
    <path
       d="m 71.358273,48.584622 c 0,-2.917173 -2.365864,-5.281454 -5.284992,-5.281454 -2.919128,0 -5.284992,2.364281 -5.284992,5.281454 0,2.917173 2.365864,5.281453 5.284992,5.281453 2.919128,0 5.284992,-2.36428 5.284992,-5.281453"
       style="fill:#bcbddc;fill-opacity:1;fill-rule:nonzero;stroke:#000000;stroke-width:0.999749;stroke-dasharray:none;stroke-opacity:1"
       id="path234-3-7"
       clip-path="none"
       inkscape:label="n" />
    <path
       d="m 49.6188,46.029525 c 0,-2.917173 -2.365865,-5.281453 -5.284992,-5.281453 -2.919128,0 -5.284993,2.36428 -5.284993,5.281453 0,2.917173 2.365865,5.281454 5.284993,5.281454 2.919127,0 5.284992,-2.364281 5.284992,-5.281454"
       style="fill:#bcbddc;fill-opacity:1;fill-rule:nonzero;stroke:#000000;stroke-width:0.999749;stroke-dasharray:none;stroke-opacity:1"
       id="path234-3-5"
       clip-path="none"
       inkscape:label="n" />
    <path
       d="m 60.734653,44.057574 c 0,-2.917173 -2.365865,-5.281454 -5.284993,-5.281454 -2.919127,0 -5.284992,2.364281 -5.284992,5.281454 0,2.917173 2.365865,5.281453 5.284992,5.281453 2.919128,0 5.284993,-2.36428 5.284993,-5.281453"
       style="fill:#bcbddc;fill-opacity:1;fill-rule:nonzero;stroke:#000000;stroke-width:0.999749;stroke-dasharray:none;stroke-opacity:1"
       id="path234-3-75"
       clip-path="none"
       inkscape:label="n" />
    <path
       d="m 47.796868,55.120356 c 0,-2.917174 -2.365864,-5.281454 -5.284992,-5.281454 -2.919128,0 -5.284992,2.36428 -5.284992,5.281454 0,2.917173 2.365864,5.281453 5.284992,5.281453 2.919128,0 5.284992,-2.36428 5.284992,-5.281453"
       style="fill:#bcbddc;fill-opacity:1;fill-rule:nonzero;stroke:#000000;stroke-width:0.999749;stroke-dasharray:none;stroke-opacity:1"
       id="path234-3-06"
       clip-path="none"
       inkscape:label="n" />
    <path
       d="m 61.918311,67.626753 c 0,-2.917174 -2.365865,-5.281454 -5.284992,-5.281454 -2.919128,0 -5.284993,2.36428 -5.284993,5.281454 0,2.917173 2.365865,5.281453 5.284993,5.281453 2.919127,0 5.284992,-2.36428 5.284992,-5.281453"
       style="fill:#bcbddc;fill-opacity:1;fill-rule:nonzero;stroke:#000000;stroke-width:0.999749;stroke-dasharray:none;stroke-opacity:1"
       id="path234-3-0"
       clip-path="none"
       inkscape:label="n" />
    <path
       d="m 68.112008,65.636432 c 0,-2.917173 -2.365864,-5.281453 -5.284992,-5.281453 -2.919128,0 -5.284992,2.36428 -5.284992,5.281453 0,2.917173 2.365864,5.281453 5.284992,5.281453 2.919128,0 5.284992,-2.36428 5.284992,-5.281453"
       style="fill:#fc9272;fill-opacity:1;fill-rule:nonzero;stroke:#000000;stroke-width:0.999749;stroke-dasharray:none;stroke-opacity:1"
       id="path210"
       clip-path="none" />
    <path
       d="m 48.683253,62.423609 c 0,-2.917173 -2.365864,-5.281453 -5.284992,-5.281453 -2.919128,0 -5.284992,2.36428 -5.284992,5.281453 0,2.917173 2.365864,5.281453 5.284992,5.281453 2.919128,0 5.284992,-2.36428 5.284992,-5.281453"
       style="fill:#fc9272;fill-opacity:1;fill-rule:nonzero;stroke:#000000;stroke-width:0.999749;stroke-dasharray:none;stroke-opacity:1"
       id="path210-2-5"
       clip-path="none" />
    <path
       d="m 53.08186,49.838902 c 0,-2.917173 -2.365864,-5.281453 -5.284992,-5.281453 -2.919128,0 -5.284992,2.36428 -5.284992,5.281453 0,2.917173 2.365864,5.281453 5.284992,5.281453 2.919128,0 5.284992,-2.36428 5.284992,-5.281453"
       style="fill:#fc9272;fill-opacity:1;fill-rule:nonzero;stroke:#000000;stroke-width:0.999749;stroke-dasharray:none;stroke-opacity:1"
       id="path210-2-8"
       clip-path="none" />
    <path
       d="m 66.321569,44.057574 c 0,-2.917173 -2.365864,-5.281453 -5.284992,-5.281453 -2.919128,0 -5.284992,2.36428 -5.284992,5.281453 0,2.917173 2.365864,5.281453 5.284992,5.281453 2.919128,0 5.284992,-2.36428 5.284992,-5.281453"
       style="fill:#fc9272;fill-opacity:1;fill-rule:nonzero;stroke:#000000;stroke-width:0.999749;stroke-dasharray:none;stroke-opacity:1"
       id="path210-2-3-5"
       clip-path="none" />
    <path
       d="m 54.847,59.751534 c 0,-2.917173 -2.365865,-5.281453 -5.284992,-5.281453 -2.919128,0 -5.284993,2.36428 -5.284993,5.281453 0,2.917174 2.365865,5.281454 5.284993,5.281454 2.919127,0 5.284992,-2.36428 5.284992,-5.281454"
       style="fill:#bcbddc;fill-opacity:1;fill-rule:nonzero;stroke:#000000;stroke-width:0.999749;stroke-dasharray:none;stroke-opacity:1"
       id="path234-3-8"
       clip-path="none"
       inkscape:label="n" />
    <path
       d="m 63.476057,52.63016 c 0,-2.917173 -2.365865,-5.281454 -5.284993,-5.281454 -2.919127,0 -5.284992,2.364281 -5.284992,5.281454 0,2.917173 2.365865,5.281453 5.284992,5.281453 2.919128,0 5.284993,-2.36428 5.284993,-5.281453"
       style="fill:#bcbddc;fill-opacity:1;fill-rule:nonzero;stroke:#000000;stroke-width:0.999749;stroke-dasharray:none;stroke-opacity:1"
       id="path234-3-47"
       clip-path="none"
       inkscape:label="n" />
    <path
       d="m 55.697947,66.548574 c 0,-2.917173 -2.365864,-5.281453 -5.284992,-5.281453 -2.919128,0 -5.284992,2.36428 -5.284992,5.281453 0,2.917173 2.365864,5.281453 5.284992,5.281453 2.919128,0 5.284992,-2.36428 5.284992,-5.281453"
       style="fill:#fc9272;fill-opacity:1;fill-rule:nonzero;stroke:#000000;stroke-width:0.999749;stroke-dasharray:none;stroke-opacity:1"
       id="path210-2-9"
       clip-path="none" />
    <path
       d="m 62.525092,59.120976 c 0,-2.917173 -2.365865,-5.281453 -5.284992,-5.281453 -2.919128,0 -5.284992,2.36428 -5.284992,5.281453 0,2.917173 2.365864,5.281453 5.284992,5.281453 2.919127,0 5.284992,-2.36428 5.284992,-5.281453"
       style="fill:#bcbddc;fill-opacity:1;fill-rule:nonzero;stroke:#000000;stroke-width:0.999749;stroke-dasharray:none;stroke-opacity:1"
       id="path234-3"
       clip-path="none"
       inkscape:label="n" />
    <path
       d="m 58.366852,55.120355 c 0,-2.917173 -2.365864,-5.281453 -5.284992,-5.281453 -2.919128,0 -5.284992,2.36428 -5.284992,5.281453 0,2.917173 2.365864,5.281453 5.284992,5.281453 2.919128,0 5.284992,-2.36428 5.284992,-5.281453"
       style="fill:#fc9272;fill-opacity:1;fill-rule:nonzero;stroke:#000000;stroke-width:0.999749;stroke-dasharray:none;stroke-opacity:1"
       id="path210-2-55"
       clip-path="none" />
    <path
       d="m 72.786052,54.847005 c 0,-2.917173 -2.365864,-5.281453 -5.284992,-5.281453 -2.919128,0 -5.284992,2.36428 -5.284992,5.281453 0,2.917173 2.365864,5.281453 5.284992,5.281453 2.919128,0 5.284992,-2.36428 5.284992,-5.281453"
       style="fill:#fc9272;fill-opacity:1;fill-rule:nonzero;stroke:#000000;stroke-width:0.999749;stroke-dasharray:none;stroke-opacity:1"
       id="path210-2-3"
       clip-path="none" />
    <g
       inkscape:groupmode="layer"
       id="layer1"
       inkscape:label="electrons"
       transform="matrix(0.80833949,0,0,0.80823732,12.514074,13.096771)"
       style="stroke-width:1.23718">
      <path
         d="m 19.802498,37.799818 c 0,-1.981 -1.606,-3.588 -3.588,-3.588 -1.981,0 -3.588,1.607 -3.588,3.588 0,1.981001 1.607,3.587 3.588,3.587 1.982,0 3.588,-1.606 3.588,-3.587"
         style="fill:#ffca00;fill-opacity:1;fill-rule:nonzero;stroke:#000000;stroke-width:1.23687;stroke-dasharray:none;stroke-opacity:1"
         id="path250-8"
         clip-path="none"
         inkscape:label="path250" />
      <path
         d="m 99.71925,33.527417 c 0,-1.981 -1.606,-3.588 -3.588,-3.588 -1.981,0 -3.588,1.607 -3.588,3.588 0,1.981 1.607,3.587 3.588,3.587 1.982,0 3.588,-1.606 3.588,-3.587"
         style="fill:#ffca00;fill-opacity:1;fill-rule:nonzero;stroke:#000000;stroke-width:1.23687;stroke-dasharray:none;stroke-opacity:1"
         id="path250-84"
         clip-path="none"
         inkscape:label="path250" />
      <path
         d="m 93.0385,53.70576 c 0,-1.981 -1.606,-3.588 -3.588,-3.588 -1.981,0 -3.588,1.607 -3.588,3.588 0,1.981 1.607,3.587 3.588,3.587 1.982,0 3.588,-1.606 3.588,-3.587"
         style="fill:#ffca00;fill-opacity:1;fill-rule:nonzero;stroke:#000000;stroke-width:1.23687;stroke-dasharray:none;stroke-opacity:1"
         id="path250-2"
         clip-path="none"
         inkscape:label="path250" />
      <path
         d="m 31.589402,11.479041 c 0,-1.981 -1.606,-3.588 -3.588,-3.588 -1.981,0 -3.588,1.607 -3.588,3.588 0,1.981 1.607,3.587 3.588,3.587 1.982,0 3.588,-1.606 3.588,-3.587"
         style="fill:#ffca00;fill-opacity:1;fill-rule:nonzero;stroke:#000000;stroke-width:1.23687;stroke-dasharray:none;stroke-opacity:1"
         id="path250-9"
         clip-path="none"
         inkscape:label="path250" />
      <path
         d="m 80.747705,86.839895 c 0,-1.981 -1.606,-3.588 -3.588,-3.588 -1.981,0 -3.588,1.607 -3.588,3.588 0,1.981 1.607,3.587 3.588,3.587 1.982,0 3.588,-1.606 3.588,-3.587"
         style="fill:#ffca00;fill-opacity:1;fill-rule:nonzero;stroke:#000000;stroke-width:1.23687;stroke-dasharray:none;stroke-opacity:1"
         id="path250-4"
         clip-path="none"
         inkscape:label="path250" />
      <path
         d="m 75.60221,15.684976 c 0,-1.981 -1.606,-3.588 -3.588,-3.588 -1.981,0 -3.588,1.607 -3.588,3.588 0,1.981 1.607,3.587 3.588,3.587 1.982,0 3.588,-1.606 3.588,-3.587"
         style="fill:#ffca00;fill-opacity:1;fill-rule:nonzero;stroke:#000000;stroke-width:1.23687;stroke-dasharray:none;stroke-opacity:1"
         id="path250-0"
         clip-path="none"
         inkscape:label="path250" />
      <path
         d="m 42.528329,95.623093 c 0,-1.981 -1.606,-3.588 -3.588,-3.588 -1.981,0 -3.588,1.607 -3.588,3.588 0,1.981 1.607,3.587 3.588,3.587 1.982,0 3.588,-1.606 3.588,-3.587"
         style="fill:#ffca00;fill-opacity:1;fill-rule:nonzero;stroke:#000000;stroke-width:1.23687;stroke-dasharray:none;stroke-opacity:1"
         id="path250-06"
         clip-path="none"
         inkscape:label="path250" />
      <path
         d="m 19.802498,69.081163 c 0,-1.981 -1.606,-3.588 -3.588,-3.588 -1.981,0 -3.588,1.607 -3.588,3.588 0,1.981 1.607,3.587 3.588,3.587 1.982,0 3.588,-1.606 3.588,-3.587"
         style="fill:#ffca00;fill-opacity:1;fill-rule:nonzero;stroke:#000000;stroke-width:1.23687;stroke-dasharray:none;stroke-opacity:1"
         id="path250-04"
         clip-path="none"
         inkscape:label="path250" />
    </g>
  </g>
</svg>
